<?xml version="1.0" encoding="utf-8"?>
<!-- Generator: Adobe Illustrator 22.0.0, SVG Export Plug-In . SVG Version: 6.00 Build 0)  -->
<svg version="1.1" id="Layer_1" xmlns="http://www.w3.org/2000/svg" xmlns:xlink="http://www.w3.org/1999/xlink" x="0px" y="0px"
	 viewBox="0 0 216 216" style="enable-background:new 0 0 216 216;" xml:space="preserve">
<style type="text/css">
	.st0{fill:#FFFFFF;}
</style>
<g>
	<g>
		<path class="st0" d="M11.1,207c0,0-0.9-0.5-2.8-1.6c-1.9-1.1-3.3-2.7-4.3-4.8c-1-2.1-1.5-4.6-1.5-7.5v-10.3c0-2.9,0.5-5.5,1.5-7.5
			c1-2.1,2.4-3.7,4.3-4.8c1.9-1.1,4.1-1.6,6.8-1.6c2.2,0,4.1,0.5,5.9,1.5c1.7,1,3.1,2.5,4.3,4.4s1.9,4.3,2.3,7h-6.8
			c-0.3-1.2-0.6-2.3-1.2-3.2c-0.5-0.9-1.2-1.5-1.9-2c-0.8-0.5-1.6-0.7-2.5-0.7c-1.2,0-2.3,0.3-3.1,0.8c-0.9,0.5-1.5,1.3-2,2.4
			c-0.5,1-0.7,2.3-0.7,3.7v10.3c0,1.5,0.2,2.7,0.7,3.7c0.5,1,1.1,1.8,2,2.4c0.9,0.5,1.9,0.8,3.1,0.8c1,0,1.8-0.2,2.6-0.7
			c0.8-0.5,1.4-1.1,1.9-2s0.9-1.9,1.1-3.2h6.8c-0.4,2.7-1.2,5.1-2.4,7s-2.5,3.4-4.3,4.4c-1.7,1-3.7,1.5-5.8,1.5
			C12.4,207,11.1,207,11.1,207z"/>
		<path class="st0" d="M37.8,205.3c-1.9-1.1-3.4-2.8-4.5-4.8c-1.1-2.1-1.6-4.5-1.6-7.2v-10.6c0-2.7,0.5-5.2,1.6-7.2
			c1.1-2.1,2.5-3.7,4.5-4.8c1.9-1.1,4.1-1.7,6.7-1.7s4.7,0.6,6.7,1.7c1.9,1.1,3.4,2.8,4.5,4.8c1.1,2.1,1.6,4.5,1.6,7.2v10.6
			c0,2.7-0.5,5.2-1.6,7.2c-1.1,2.1-2.5,3.7-4.5,4.8c-1.9,1.1-4.1,1.7-6.7,1.7S39.7,206.4,37.8,205.3z M47.6,199.1
			c0.9-0.5,1.6-1.3,2.1-2.3c0.5-1,0.7-2.1,0.7-3.4v-11c0-1.3-0.2-2.5-0.7-3.4c-0.5-1-1.2-1.8-2.1-2.3c-0.9-0.5-1.9-0.8-3.1-0.8
			s-2.2,0.3-3.1,0.8c-0.9,0.5-1.6,1.3-2.1,2.3c-0.5,1-0.7,2.1-0.7,3.4v11c0,1.3,0.2,2.5,0.7,3.4c0.5,1,1.2,1.8,2.1,2.3
			c0.9,0.5,1.9,0.8,3.1,0.8S46.7,199.7,47.6,199.1z"/>
		<path class="st0" d="M85.5,169.2h8.6v37.4h-6v-29l0.2,1.6l-6.6,23.2H76l-6.6-22.7l0.2-2.2v29h-6v-37.4h8.6l6.6,25.2L85.5,169.2z"
			/>
		<path class="st0" d="M101.8,169.2h6.5v37.4h-6.5V169.2z M104.8,185.3h11.1c0.8,0,1.5-0.2,2.1-0.6s1.1-0.9,1.4-1.6
			c0.3-0.7,0.5-1.5,0.5-2.4c0-0.9-0.2-1.7-0.5-2.5c-0.3-0.7-0.8-1.3-1.4-1.6s-1.3-0.6-2.1-0.6h-11.1v-6.8h10.9
			c2.2,0,4.1,0.5,5.7,1.4c1.6,1,2.9,2.3,3.8,4c0.9,1.7,1.4,3.7,1.4,6c0,2.3-0.5,4.3-1.4,6c-0.9,1.7-2.2,3.1-3.8,4
			c-1.6,0.9-3.6,1.4-5.7,1.4h-10.9V185.3z"/>
		<path class="st0" d="M140.1,169.2h4.2l13.3,37.4h-7.1l-8.3-25.5l-8.3,25.5h-7.1L140.1,169.2z M133.2,193.8h18.3v6.8h-18.3V193.8z"
			/>
		<path class="st0" d="M168.3,207c0,0-0.8-0.2-2.4-0.5c-1.6-0.4-3.1-0.9-4.5-1.6c-1.4-0.7-2.6-1.5-3.7-2.5l3-5.8
			c1.3,1.2,2.9,2.1,4.6,2.7c1.8,0.6,3.6,1,5.4,1c2.1,0,3.8-0.4,5-1.2c1.2-0.8,1.8-1.9,1.8-3.3v0c0-1-0.3-1.8-0.8-2.4
			c-0.5-0.6-1.2-1-2.1-1.3c-0.8-0.3-1.9-0.5-3.3-0.7c0,0-0.1,0-0.1,0c0,0-0.1,0-0.1,0l-0.5-0.1c-2.3-0.4-4.3-0.9-5.8-1.5
			c-1.5-0.6-2.8-1.6-3.9-3.1c-1.1-1.5-1.6-3.6-1.6-6.3v0c0-2.4,0.5-4.5,1.5-6.2c1-1.7,2.5-3,4.4-3.9s4.2-1.3,6.9-1.3
			c1.2,0,2.5,0.2,3.8,0.5s2.6,0.8,3.8,1.3c1.2,0.6,2.4,1.3,3.5,2.1l-2.8,6c-1.3-1-2.7-1.8-4.2-2.3c-1.5-0.5-2.9-0.8-4.2-0.8
			c-2,0-3.6,0.4-4.7,1.1c-1.1,0.7-1.6,1.7-1.6,3v0c0,1.1,0.3,1.9,0.9,2.6c0.6,0.6,1.3,1.1,2.1,1.4c0.8,0.3,2,0.6,3.6,0.9
			c0.1,0,0.1,0,0.2,0c0.1,0,0.1,0,0.2,0c0.1,0,0.2,0,0.3,0.1c0.1,0,0.2,0,0.3,0.1c2.2,0.5,4,1,5.5,1.7c1.5,0.7,2.7,1.7,3.7,3.2
			c1,1.5,1.5,3.5,1.5,6v0.1c0,2.4-0.5,4.4-1.6,6.1c-1,1.7-2.5,3-4.5,3.9c-2,0.9-4.4,1.3-7.2,1.3C169.2,207,168.3,207,168.3,207z"/>
		<path class="st0" d="M197.5,207c0,0-0.8-0.2-2.4-0.5c-1.6-0.4-3.1-0.9-4.5-1.6c-1.4-0.7-2.6-1.5-3.7-2.5l3-5.8
			c1.3,1.2,2.9,2.1,4.6,2.7c1.8,0.6,3.6,1,5.4,1c2.1,0,3.8-0.4,5-1.2c1.2-0.8,1.8-1.9,1.8-3.3v0c0-1-0.3-1.8-0.8-2.4
			c-0.5-0.6-1.2-1-2.1-1.3c-0.8-0.3-1.9-0.5-3.3-0.7c0,0-0.1,0-0.1,0c0,0-0.1,0-0.1,0l-0.5-0.1c-2.3-0.4-4.3-0.9-5.8-1.5
			c-1.5-0.6-2.8-1.6-3.9-3.1c-1.1-1.5-1.6-3.6-1.6-6.3v0c0-2.4,0.5-4.5,1.5-6.2c1-1.7,2.5-3,4.4-3.9c1.9-0.9,4.2-1.3,6.9-1.3
			c1.2,0,2.5,0.2,3.8,0.5c1.3,0.3,2.6,0.8,3.8,1.3c1.2,0.6,2.4,1.3,3.5,2.1l-2.8,6c-1.3-1-2.7-1.8-4.2-2.3c-1.5-0.5-2.9-0.8-4.2-0.8
			c-2,0-3.6,0.4-4.7,1.1c-1.1,0.7-1.6,1.7-1.6,3v0c0,1.1,0.3,1.9,0.9,2.6c0.6,0.6,1.3,1.1,2.1,1.4c0.8,0.3,2,0.6,3.6,0.9
			c0.1,0,0.1,0,0.2,0c0.1,0,0.1,0,0.2,0c0.1,0,0.2,0,0.3,0.1c0.1,0,0.2,0,0.3,0.1c2.2,0.5,4,1,5.5,1.7c1.5,0.7,2.7,1.7,3.7,3.2
			c1,1.5,1.5,3.5,1.5,6v0.1c0,2.4-0.5,4.4-1.6,6.1c-1,1.7-2.5,3-4.5,3.9c-2,0.9-4.4,1.3-7.2,1.3C198.4,207,197.5,207,197.5,207z"/>
	</g>
</g>
<path class="st0" d="M47.1,43.9c0.9,0,1.7,0.1,2.5,0.1c0.4,0.5,0.9,0.9,1.3,1.3l2.6,2.6l2.6,2.6l1.3,1.3c0.1,0.8,0.2,1.6,0.2,2.5
	c-0.9,0-1.7-0.1-2.5-0.2L53.8,53l-2.6-2.6l-2.6-2.6c-0.4-0.4-0.9-0.9-1.3-1.3C47.1,45.6,47,44.8,47.1,43.9z"/>
<path class="st0" d="M169,44.1c0,0.9-0.1,1.7-0.1,2.5c-0.5,0.4-0.9,0.9-1.3,1.3l-2.6,2.6l-2.6,2.6l-1.3,1.3
	c-0.8,0.1-1.6,0.2-2.5,0.2c0-0.9,0.1-1.7,0.2-2.5l1.3-1.3l2.6-2.6l2.6-2.6c0.4-0.4,0.9-0.9,1.3-1.3C167.3,44.1,168.1,44,169,44.1z"
	/>
<path class="st0" d="M154.3,32.4c0.1,0.5,0.1,0.9,0.2,1.3c-0.2,0.3-0.4,0.6-0.5,0.8l-1.1,1.7l-1.1,1.7l-0.5,0.8
	c-0.4,0.1-0.8,0.3-1.2,0.4c-0.1-0.5-0.1-0.9-0.2-1.3l0.5-0.8l1.1-1.7l1.1-1.7c0.2-0.3,0.4-0.6,0.5-0.8
	C153.5,32.7,153.9,32.5,154.3,32.4z"/>
<path class="st0" d="M179.7,57.1c-0.1,0.5-0.2,0.9-0.4,1.2c-0.3,0.2-0.6,0.4-0.8,0.6l-1.6,1.1l-1.6,1.1l-0.8,0.6
	c-0.4,0-0.8,0-1.3-0.1c0.1-0.5,0.2-0.8,0.4-1.2l0.8-0.6l1.6-1.1l1.6-1.1c0.3-0.2,0.6-0.4,0.8-0.6C178.8,57,179.2,57,179.7,57.1z"/>
<path class="st0" d="M60.2,33.3c0.5,0.1,0.9,0.2,1.2,0.4c0.2,0.3,0.4,0.6,0.5,0.8l1.1,1.7l1.1,1.7l0.6,0.8c0,0.4,0,0.8-0.1,1.3
	c-0.5-0.1-0.8-0.2-1.2-0.4l-0.6-0.8l-1.1-1.7l-1.1-1.7c-0.2-0.3-0.4-0.6-0.6-0.8C60.1,34.2,60.1,33.8,60.2,33.3z"/>
<path class="st0" d="M37.4,55.2c0.5-0.1,0.9-0.1,1.3-0.1c0.3,0.2,0.5,0.4,0.8,0.6l1.6,1.1l1.6,1.1l0.8,0.6c0.1,0.4,0.3,0.8,0.3,1.2
	c-0.5,0.1-0.9,0.1-1.3,0.1l-0.8-0.6l-1.6-1.1l-1.6-1.1c-0.3-0.2-0.5-0.4-0.8-0.6C37.6,56.1,37.5,55.7,37.4,55.2z"/>
<path class="st0" d="M24.2,83.5c0.4-0.2,0.8-0.4,1.2-0.6c0.3,0.1,0.6,0.2,1,0.3l1.9,0.5l1.9,0.5l1,0.3c0.3,0.3,0.5,0.6,0.8,1
	c-0.4,0.2-0.8,0.4-1.2,0.5l-1-0.3l-1.9-0.5l-1.9-0.5c-0.3-0.1-0.6-0.2-1-0.2C24.7,84.2,24.4,83.9,24.2,83.5z"/>
<path class="st0" d="M87.1,21.5c0.4,0.2,0.7,0.5,1,0.8c0.1,0.3,0.2,0.6,0.2,1l0.5,1.9l0.5,1.9l0.2,1c-0.2,0.4-0.3,0.8-0.6,1.2
	c-0.4-0.2-0.7-0.5-1-0.8l-0.2-1l-0.5-1.9l-0.5-1.9c-0.1-0.3-0.2-0.6-0.3-1C86.7,22.3,86.8,21.9,87.1,21.5z"/>
<path class="st0" d="M125.6,20.8c0.3,0.4,0.4,0.8,0.6,1.1c-0.1,0.3-0.1,0.6-0.2,1l-0.4,1.9l-0.4,1.9l-0.2,1c-0.3,0.3-0.6,0.6-1,0.8
	c-0.3-0.4-0.4-0.8-0.6-1.1l0.2-1l0.4-1.9l0.4-1.9c0.1-0.3,0.1-0.6,0.2-1C124.8,21.3,125.1,21,125.6,20.8z"/>
<path class="st0" d="M191.9,84.4c-0.2,0.4-0.5,0.7-0.8,1.1c-0.3,0.1-0.6,0.2-1,0.2l-1.9,0.5l-1.9,0.5l-1,0.2
	c-0.4-0.2-0.8-0.3-1.2-0.6c0.2-0.4,0.5-0.7,0.8-1l1-0.2l1.9-0.5l1.9-0.5c0.3-0.1,0.6-0.2,1-0.3C191.1,84,191.5,84.1,191.9,84.4z"/>
<path class="st0" d="M194,115.2c-0.4,0.3-0.7,0.5-1.1,0.7c-0.3-0.1-0.7-0.1-1-0.1l-2-0.2l-2-0.2l-1-0.1c-0.3-0.3-0.6-0.6-0.9-0.9
	c0.4-0.3,0.7-0.5,1.1-0.7l1,0.1l2,0.2l2,0.2c0.3,0,0.7,0.1,1,0.1C193.4,114.5,193.7,114.8,194,115.2z"/>
<path class="st0" d="M22.3,118.4c0.3-0.4,0.6-0.7,0.9-1c0.3,0,0.7-0.1,1-0.1l2-0.3l2-0.3l1-0.2c0.4,0.2,0.7,0.4,1.1,0.7
	c-0.3,0.4-0.6,0.7-0.9,1l-1,0.2l-2,0.3l-2,0.3c-0.3,0.1-0.7,0.1-1,0.2C23,118.8,22.6,118.6,22.3,118.4z"/>
<path class="st0" d="M74.1,25.7c0.9,0.3,1.6,0.7,2.3,1.1c0.2,0.6,0.5,1.2,0.7,1.7l1.5,3.4l1.5,3.4l0.7,1.7c-0.2,0.8-0.4,1.5-0.8,2.4
	c-0.9-0.3-1.5-0.7-2.2-1.1L77,36.6l-1.5-3.4l-1.5-3.4c-0.3-0.6-0.5-1.2-0.8-1.7C73.5,27.3,73.7,26.5,74.1,25.7z"/>
<path class="st0" d="M138.9,24.5c0.4,0.8,0.6,1.6,0.9,2.3c-0.3,0.6-0.5,1.2-0.7,1.7l-1.3,3.5l-1.3,3.5l-0.7,1.7
	c-0.7,0.4-1.4,0.8-2.2,1.2c-0.4-0.8-0.6-1.6-0.9-2.3l0.7-1.7l1.3-3.5l1.3-3.5c0.2-0.6,0.5-1.2,0.7-1.8
	C137.3,25.2,138,24.8,138.9,24.5z"/>
<path class="st0" d="M187.7,72.3c-0.3,0.9-0.7,1.6-1.1,2.2c-0.6,0.2-1.2,0.5-1.7,0.7l-3.5,1.4l-3.5,1.4l-1.7,0.7
	c-0.8-0.2-1.5-0.4-2.4-0.8c0.3-0.8,0.7-1.5,1.1-2.2l1.7-0.7l3.5-1.4l3.5-1.4c0.6-0.2,1.2-0.5,1.7-0.7
	C186.1,71.7,186.9,71.9,187.7,72.3z"/>
<path class="st0" d="M29.7,68.6c0.9-0.4,1.6-0.5,2.4-0.7c0.6,0.3,1.1,0.5,1.7,0.8l3.4,1.6l3.4,1.6l1.7,0.8c0.4,0.7,0.7,1.4,1,2.3
	c-0.8,0.3-1.6,0.5-2.4,0.7l-1.7-0.8l-3.4-1.6l-3.4-1.6c-0.6-0.3-1.1-0.5-1.7-0.8C30.4,70.2,30,69.5,29.7,68.6z"/>
<path class="st0" d="M109.9,74.3c0-2.2-0.1-4.4-0.1-6.6c-0.4,0-0.8-0.1-1.2-0.1v6.6C109.1,74.3,109.5,74.3,109.9,74.3z"/>
<path class="st0" d="M108.7,74.3l0-6.6c0,0,0,0,0,0c-1,0-2,0.1-3,0.1c0.1,2.2,0.2,4.4,0.3,6.6C106.8,74.3,107.7,74.3,108.7,74.3z"/>
<path class="st0" d="M79,104.5c0-2.5,0.2-4.9,0.8-7.2c-2-0.7-4.1-1.3-6.4-1.6c-0.9,3.7-1.2,7.6-0.8,11.4c2.2,0,4.4,0,6.6,0.1
	C79,106.2,79,105.4,79,104.5z"/>
<polygon class="st0" points="108.7,67.7 108.7,67.7 108.7,67.7 "/>
<path class="st0" d="M140.7,106.5c1.5,0.3,2.8,0.9,3.9,1.8c0.3-2.8,0.4-5.6,0.1-8.4c-1.4,1.3-3.1,2-5.1,2.2c-0.4,0-0.9,0.1-1.3,0.1
	c0,0,0,0,0,0c0.1,1.3,0.1,2.6,0,4C139.1,106.3,139.9,106.4,140.7,106.5z"/>
<path class="st0" d="M100.8,68.6c-3.6,0.8-7.1,2.2-10.4,4.1l-10.7,0.2l0.2,9.1c-2.1,2.8-3.8,5.8-5,8.9c2.1,0.4,4.3,0.9,6.4,1.7
	c1.4-3.4,3.4-6.5,6-9.2c3.8-4,8.5-6.7,13.7-8C100.9,73.1,100.9,70.8,100.8,68.6z"/>
<path class="st0" d="M138.2,125c2.3-3.3,4.1-6.9,5.2-10.6c-0.2-0.2-0.4-0.5-0.5-0.7c-1.2-1.8-2.2-2.2-3-2.3
	c-0.7-0.1-1.5-0.2-2.4-0.2c-1.2,4.9-3.7,9.5-7.4,13.4c-0.1,0.2-0.3,0.3-0.5,0.4H138.2z"/>
<path class="st0" d="M87.7,125c-3.7-3.7-6.3-8.1-7.6-13c-2.3,0-4.5,0-6.8-0.1c1,4.6,3,9.1,5.9,13.1H87.7z"/>
<g>
	<polygon class="st0" points="108.3,6.7 108.3,6.7 108.3,6.7 	"/>
	<path class="st0" d="M108.3,16.5c23,0,44.8,8.8,61.4,24.8c17,16.4,26.5,38.4,26.9,62c0.1,7.4-0.7,14.7-2.3,21.7h10.1
		c6.7-31.9-2.7-66.5-27.8-90.8c-19.1-18.4-43.6-27.6-68.2-27.6L108.3,16.5L108.3,16.5z"/>
	<path class="st0" d="M22.2,125c-1.4-6.1-2.2-12.3-2.3-18.7c-0.4-23.6,8.4-45.9,24.8-62.9c16.8-17.4,39.4-26.9,63.5-26.9l0-9.9
		c0,0,0,0,0,0c-25.7,0-51.4,10-70.6,30C14.1,60.9,5.7,94.3,12.1,125H22.2z"/>
</g>
<g>
	<g>
		<path class="st0" d="M11.3,166.4c0,0-1-0.5-3-1.6c-2-1.1-3.6-2.7-4.6-4.8C2.6,158,2,155.5,2,152.5v-10.3c0-2.9,0.5-5.5,1.6-7.5
			c1.1-2.1,2.6-3.7,4.6-4.8c2-1.1,4.5-1.6,7.3-1.6c2.3,0,4.4,0.5,6.3,1.5c1.9,1,3.4,2.5,4.6,4.4s2,4.3,2.5,7h-7.3
			c-0.3-1.2-0.7-2.3-1.3-3.2c-0.6-0.9-1.3-1.5-2.1-2c-0.8-0.5-1.7-0.7-2.7-0.7c-1.3,0-2.4,0.3-3.4,0.8c-0.9,0.5-1.6,1.3-2.1,2.4
			c-0.5,1-0.7,2.3-0.7,3.7v10.3c0,1.5,0.2,2.7,0.7,3.7c0.5,1,1.2,1.8,2.1,2.4c0.9,0.5,2,0.8,3.4,0.8c1,0,2-0.2,2.8-0.7
			c0.8-0.5,1.5-1.1,2.1-2c0.6-0.9,1-1.9,1.2-3.2h7.3c-0.5,2.7-1.3,5.1-2.5,7s-2.7,3.4-4.6,4.4c-1.8,1-3.9,1.5-6.3,1.5
			C12.7,166.4,11.3,166.4,11.3,166.4z"/>
		<path class="st0" d="M40.1,164.7c-2.1-1.1-3.7-2.8-4.8-4.8c-1.1-2.1-1.7-4.5-1.7-7.2v-10.6c0-2.7,0.6-5.2,1.7-7.2
			c1.1-2.1,2.7-3.7,4.8-4.8c2.1-1.1,4.5-1.7,7.2-1.7c2.7,0,5.1,0.6,7.2,1.7c2.1,1.1,3.7,2.8,4.8,4.8c1.1,2.1,1.7,4.5,1.7,7.2v10.6
			c0,2.7-0.6,5.2-1.7,7.2c-1.1,2.1-2.7,3.7-4.8,4.8c-2.1,1.1-4.5,1.7-7.2,1.7C44.5,166.4,42.1,165.9,40.1,164.7z M50.6,158.6
			c1-0.5,1.7-1.3,2.2-2.3c0.5-1,0.8-2.1,0.8-3.4v-11c0-1.3-0.3-2.5-0.8-3.4c-0.5-1-1.3-1.8-2.2-2.3c-1-0.5-2.1-0.8-3.3-0.8
			c-1.3,0-2.4,0.3-3.3,0.8c-1,0.5-1.7,1.3-2.2,2.3c-0.5,1-0.8,2.1-0.8,3.4v11c0,1.3,0.3,2.5,0.8,3.4c0.5,1,1.3,1.8,2.2,2.3
			c1,0.5,2.1,0.8,3.3,0.8C48.5,159.4,49.6,159.1,50.6,158.6z"/>
		<path class="st0" d="M73,164.7c-2.1-1.1-3.7-2.8-4.8-4.8c-1.1-2.1-1.7-4.5-1.7-7.2v-10.6c0-2.7,0.6-5.2,1.7-7.2
			c1.1-2.1,2.7-3.7,4.8-4.8c2.1-1.1,4.5-1.7,7.2-1.7c2.7,0,5.1,0.6,7.2,1.7c2.1,1.1,3.7,2.8,4.8,4.8c1.1,2.1,1.7,4.5,1.7,7.2v10.6
			c0,2.7-0.6,5.2-1.7,7.2c-1.1,2.1-2.7,3.7-4.8,4.8c-2.1,1.1-4.5,1.7-7.2,1.7C77.5,166.4,75.1,165.9,73,164.7z M83.5,158.6
			c1-0.5,1.7-1.3,2.2-2.3c0.5-1,0.8-2.1,0.8-3.4v-11c0-1.3-0.3-2.5-0.8-3.4c-0.5-1-1.3-1.8-2.2-2.3c-1-0.5-2.1-0.8-3.3-0.8
			c-1.3,0-2.4,0.3-3.3,0.8c-1,0.5-1.7,1.3-2.2,2.3c-0.5,1-0.8,2.1-0.8,3.4v11c0,1.3,0.3,2.5,0.8,3.4c0.5,1,1.3,1.8,2.2,2.3
			c1,0.5,2.1,0.8,3.3,0.8C81.4,159.4,82.6,159.1,83.5,158.6z"/>
		<path class="st0" d="M100.8,128.7h7v37.4h-7V128.7z M105,151.5l15-22.8h8.9l-23,31.9L105,151.5z M111.2,147.1l6.1-3.8l13.1,22.7
			h-8.4L111.2,147.1z"/>
		<path class="st0" d="M141.8,166.1h-7.3v-37.4h7.3V166.1z"/>
		<path class="st0" d="M149.6,128.7h8.6l13.9,28.6l-0.6,0.7v-29.3h6.7V166h-8.7l-13.9-28.2l0.6-0.7V166h-6.7V128.7z"/>
		<path class="st0" d="M213,145.2v7.3c0,2.8-0.6,5.2-1.7,7.3c-1.1,2.1-2.7,3.8-4.8,4.9s-4.4,1.7-7.1,1.7c-2.7,0-5.1-0.5-7.2-1.6
			c-2.1-1.1-3.7-2.6-4.8-4.6c-1.1-2-1.7-4.3-1.7-6.9v-11c0-2.8,0.6-5.2,1.7-7.3c1.1-2.1,2.7-3.7,4.8-4.9s4.4-1.7,7.1-1.7
			c2.2,0,4.3,0.5,6.2,1.4c1.9,0.9,3.5,2.2,4.7,3.9c1.3,1.7,2.1,3.6,2.6,5.8h-7.6c-0.3-0.8-0.7-1.5-1.3-2c-0.6-0.6-1.3-1-2.1-1.3
			c-0.8-0.3-1.6-0.4-2.5-0.4c-1.3,0-2.4,0.3-3.3,0.8c-1,0.5-1.7,1.3-2.2,2.3c-0.5,1-0.8,2.2-0.8,3.5v11c0,1.2,0.3,2.2,0.8,3.1
			c0.5,0.9,1.3,1.6,2.3,2.1c1,0.5,2.1,0.7,3.4,0.7c1.3,0,2.4-0.3,3.3-0.8c1-0.5,1.7-1.3,2.2-2.3c0.5-1,0.8-2.2,0.8-3.5v-0.6H200
			v-6.8H213z"/>
	</g>
</g>
<g>
	<path class="st0" d="M139.2,73.3l-3.4,0.1l-7,8.8c0.2,0.1,0.3,0.3,0.5,0.4c4.3,4.2,7.1,9.3,8.3,14.8l0.5,0c0.2,0,0.3,0,0.5,0
		c0.2,0,0.4,0,0.5-0.1c1.4-0.1,2.3-0.7,3-1.9c0.4-0.7,0.8-1.3,1.3-1.9c-0.9-3.1-2.3-6.1-4-8.8L139.2,73.3z"/>
	<path class="st0" d="M114.9,75c3.6,0.8,7,2.2,10.1,4.2l4.5-5.7l-1.2,0c-4.2-2.7-8.8-4.4-13.5-5.2c0,1.9,0.1,3.8,0.1,5.8
		C114.9,74.3,114.9,74.6,114.9,75z"/>
</g>
<path class="st0" d="M148.9,50.1l-6.4,8.1l-12.8,16.2L117,90.6l-6.4,8.1c-0.1,0.1-0.1,0.2-0.2,0.3c-0.6-0.2-1.1-0.3-1.7-0.3
	c-1.4,0-2.8,0.5-3.8,1.6c-1.7,1.8-1.9,4.5-0.7,6.5L97,116c-0.3-0.1-0.5-0.1-0.8-0.1c-2,0-3.5,1.6-3.5,3.5s1.6,3.5,3.5,3.5
	s3.5-1.6,3.5-3.5c0-0.4-0.1-0.9-0.2-1.3l7.3-9.3c0.6,0.2,1.3,0.4,2,0.4c1.4,0,2.8-0.5,3.8-1.6c1.8-1.9,2-4.7,0.5-6.8
	c0.1-0.1,0.1-0.1,0.2-0.2l6.4-8.1l12.8-16.2l12.8-16.2l6.4-8.1c1.7-3,3.5-6,5.1-9.1C153.9,45.3,151.4,47.7,148.9,50.1z M110.8,106.1
	c-0.6,0.6-1.3,0.9-2.2,0.9c-0.8,0-1.5-0.3-2.1-0.9c-0.6-0.6-0.9-1.3-0.9-2.1c0-0.8,0.3-1.6,0.8-2.2c0.6-0.6,1.3-0.9,2.2-0.9
	c0.8,0,1.5,0.3,2.1,0.9C112,103,112,104.9,110.8,106.1z"/>
<path d="M154.3,46c-1.1,1.9-2.2,3.8-3.2,5.7l-0.1,0.2l-6.4,8L131.8,76L119,92.2l-6.4,8.1l-0.1,0.1l-0.1,0.1l-0.4,0.4l0.3,0.5
	c1.3,1.8,1.1,4.3-0.4,6c-0.9,0.9-2.1,1.4-3.3,1.4c-0.6,0-1.2-0.1-1.7-0.3l-0.5-0.2l-0.3,0.4l-7.3,9.3l-0.2,0.3l0.1,0.4
	c0.1,0.3,0.2,0.7,0.2,1c0,1.6-1.3,2.9-2.9,2.9c-1.6,0-2.9-1.3-2.9-2.9s1.3-2.9,2.9-2.9c0.2,0,0.4,0,0.7,0.1l0.4,0.1l0.3-0.3l7.2-9.2
	l0.3-0.4l-0.3-0.4c-1.2-1.8-0.9-4.2,0.6-5.7c0.9-0.9,2.1-1.4,3.3-1.4c0.5,0,1,0.1,1.5,0.3l0.5,0.2l0.3-0.5l0.1-0.1l0.1-0.2l6.4-8.1
	l12.8-16.2L143,58.6l6.3-8.1l0.2-0.1C151.1,48.9,152.7,47.4,154.3,46 M108.7,107.7c1,0,2-0.4,2.7-1.1c0.7-0.7,1.1-1.6,1-2.6
	c0-1-0.4-1.9-1.1-2.6c-0.7-0.7-1.6-1-2.6-1c-1,0-2,0.4-2.7,1.1c-0.7,0.7-1.1,1.6-1,2.6c0,1,0.4,1.9,1.1,2.6
	C106.8,107.3,107.7,107.7,108.7,107.7 M156.6,43.1c-2.7,2.3-5.2,4.7-7.7,7.1l-6.4,8.1l-12.8,16.2L117,90.6l-6.4,8.1
	c-0.1,0.1-0.1,0.2-0.2,0.3c-0.6-0.2-1.1-0.3-1.7-0.3c-1.4,0-2.8,0.5-3.8,1.6c-1.7,1.8-1.9,4.5-0.7,6.5L97,116
	c-0.3-0.1-0.5-0.1-0.8-0.1c-2,0-3.5,1.6-3.5,3.5s1.6,3.5,3.5,3.5c2,0,3.5-1.6,3.5-3.5c0-0.4-0.1-0.9-0.2-1.3l7.3-9.3
	c0.6,0.2,1.3,0.4,2,0.4c1.4,0,2.8-0.5,3.8-1.6c1.8-1.9,2-4.7,0.5-6.8c0.1-0.1,0.1-0.1,0.2-0.2l6.4-8.1l12.8-16.2l12.8-16.2l6.4-8.1
	C153.3,49.2,155,46.2,156.6,43.1L156.6,43.1z M108.7,107c-0.8,0-1.5-0.3-2.1-0.9c-0.6-0.6-0.9-1.3-0.9-2.1c0-0.8,0.3-1.6,0.8-2.2
	c0.6-0.6,1.3-0.9,2.2-0.9c0.8,0,1.5,0.3,2.1,0.9c1.2,1.2,1.2,3.1,0.1,4.3C110.3,106.7,109.5,107,108.7,107L108.7,107z"/>
<g>
	<path class="st0" d="M99.7,111.2l3.2-4.1c-0.5-0.9-0.8-1.9-0.8-3c0-1.7,0.6-3.4,1.8-4.6c1.2-1.3,2.9-2,4.7-2c0.6,0,1.1,0.1,1.6,0.2
		l3.2-4.1c-1-0.5-2.1-0.8-3.2-1c0-0.1,0-0.2,0-0.3c-0.3-8.4-0.3-16.8-0.5-25.1c0-1.1,0-2.3,0.1-3.4c0.1-2.2,0.9-4.1,2.4-5.8
		c0.6-0.7,1.2-1.3,1.8-2c0.9-1.3,1-2.8,0.9-4.2c-0.4-7.9-0.8-15.9-1.3-23.8c-0.1-2-0.4-4-0.6-6c0-0.3-0.1-0.5-0.2-0.8
		c-0.1,0-0.1,0-0.2,0c0,0.3-0.1,0.7-0.1,1c-0.1,3.3-0.1,6.6-0.2,9.9c0,5.2-0.1,10.3-0.1,15.5c0,0.9-0.4,1.2-1.2,0.8
		c-0.4-0.2-0.4-0.5-0.4-0.8c-0.3-5.6-0.5-11.3-0.8-16.9c-0.2-2.9-0.4-5.9-0.7-8.8c0-0.3-0.1-0.5-0.2-0.7c-0.1,0-0.1,0-0.2,0
		c-0.1,0.6-0.2,1.2-0.2,1.8c-0.1,5.1-0.1,10.2-0.2,15.4c0,3.2-0.1,6.3-0.1,9.5c0,0.5-0.2,0.8-0.7,0.8c-0.5,0-0.7-0.2-0.8-0.8
		c0-0.2,0-0.4-0.1-0.6c-0.2-5.4-0.3-10.7-0.5-16.1c-0.1-3-0.3-6.1-0.5-9.1c0-0.3-0.1-0.5-0.2-0.8c-0.1,0-0.1,0-0.2,0
		c-0.1,0.8-0.2,1.6-0.2,2.4c-0.2,6.4-0.3,12.9-0.5,19.3c0,1.7-0.1,3.4-0.1,5.1c0,0.6-0.5,0.6-0.9,0.7c-0.4,0.1-0.7-0.1-0.7-0.6
		c0-0.5-0.1-1-0.1-1.5c-0.3-7.6-0.5-15.3-0.8-22.9c0-0.8-0.2-1.5-0.3-2.3c-0.1,0-0.1,0-0.2,0c-0.1,0.3-0.1,0.5-0.2,0.8
		c-0.1,1.2-0.3,2.4-0.3,3.6c-0.2,6.7-0.4,13.4-0.6,20.2c-0.1,2.6,0,5.2,0.1,7.8c0,1.3,0.5,2.4,1.5,3.2c0.5,0.5,1,1,1.4,1.5
		c1.2,1.4,2.1,3.1,2.2,5c0.2,4.3,0.4,8.7,0.5,13c0.1,5.5,0.2,11,0,16.4c-2.1,0.5-4,1.5-5.6,3.2c-2,2.1-3.1,4.7-3.2,7.4
		c-1.6,0-3.3-0.1-4.9-0.3c-3.1-0.3-2.3,1.1-7.8-3.4c-5.5-4.4-17.4-5.2-23.6-4.8c-6.3,0.4-7.4,0.5-16.1,2.5c-8.7,2-17.3,7.7-17.3,8.4
		c0,0.7,0.7,0.5,0.7,0.6c9.2,0.1,42.9,0.6,69.5,0.8C98.1,108.6,98.8,110,99.7,111.2z"/>
	<path class="st0" d="M180.5,99.7c-1.5-2-3.5-3.4-5.7-4.5c-5.6-2.9-11.6-4-17.9-3.6c-4.6,0.3-8.1,2.3-10.5,6.3
		c-1.5,2.5-3.8,4-6.8,4.3c-0.4,0-0.9,0.1-1.3,0.1c-4.5,0.2-9.1,0.3-13.6,0.5c-1.5,0-3.1,0-4.6,0c-0.2-2.2-1.1-4.4-2.7-6.2l-3.2,4
		c1.5,2.5,1.2,5.7-0.9,7.9c-1.2,1.3-2.9,2-4.7,2c-0.7,0-1.3-0.1-1.9-0.3l-3.2,4c0.1,0.1,0.2,0.1,0.4,0.2c-0.4,3.5-0.9,7.1-1.3,10.6
		h12.1c-0.6-3.5-1.2-7-1.7-10.4c1.4-0.6,2.8-1.5,4-2.7c1.5-1.5,2.5-3.4,2.9-5.4c5.6-0.1,11.2-0.2,16.8-0.3c1.4,0,2.7,0,4.1,0.3
		c2.8,0.5,4.8,2.2,6.3,4.5c2,3.1,5,4.8,8.7,5.2c5.3,0.6,10.4-0.2,15.4-2.1c3.1-1.2,5.9-2.7,8.4-5.2c0.2-0.2,0.5-0.5,0.7-0.9
		C181.9,105.8,182.8,102.6,180.5,99.7z"/>
</g>
</svg>
